<?xml version="1.0" encoding="UTF-8" standalone="no"?>
<!DOCTYPE svg PUBLIC "-//W3C//DTD SVG 1.0//EN" "http://www.w3.org/TR/2001/PR-SVG-20010719/DTD/svg10.dtd">
<svg width="15cm" height="8cm" viewBox="530 114 281 142" xmlns="http://www.w3.org/2000/svg" xmlns:xlink="http://www.w3.org/1999/xlink">
  <g>
    <path style="fill: #c9c9b6" d="M 545.204 155.275 L 579.199,155.275 L 564.906,169.618 L 530.911,169.618 L 545.204,155.275z"/>
    <path style="fill: none; fill-opacity:0; stroke-width: 0.02; stroke: #494936" d="M 545.204 155.275 L 579.199,155.275 L 564.906,169.618 L 530.911,169.618 L 545.204,155.275"/>
    <path style="fill: none; fill-opacity:0; stroke-width: 0.02; stroke: #dbdbce" d="M 546.509 167.195 L 546.509,167.271 L 546.523,167.334 L 546.544,167.417 L 546.572,167.5 L 546.614,167.563 L 546.662,167.639 L 546.725,167.709 L 546.787,167.771 L 546.85,167.847 L 546.933,167.924 L 547.016,167.986 L 547.106,168.042 L 547.211,168.097 L 547.308,168.16 L 547.433,168.208 L 547.544,168.271 L 547.669,168.32 L 547.808,168.368 L 547.946,168.41 L 548.078,168.451 L 548.224,168.493 L 548.37,168.535 L 548.523,168.556 L 548.689,168.583 L 548.849,168.597 L 549.015,168.625 L 549.168,168.646 L 549.342,168.667 L 549.515,168.674 L 549.682,168.681 L 549.848,168.681"/>
    <path style="fill: none; fill-opacity:0; stroke-width: 0.02; stroke: #dbdbce" d="M 549.481 168.681 L 549.647,168.681 L 549.807,168.674 L 549.967,168.66 L 550.133,168.639 L 550.3,168.625 L 550.452,168.597 L 550.605,168.583 L 550.765,168.549 L 550.911,168.514 L 551.063,168.472 L 551.195,168.431 L 551.334,168.389 L 551.466,168.34 L 551.591,168.292 L 551.702,168.243 L 551.82,168.188 L 551.931,168.125 L 552.028,168.07 L 552.125,168 L 552.209,167.931 L 552.285,167.861 L 552.348,167.799 L 552.417,167.723 L 552.473,167.646 L 552.514,167.584 L 552.563,167.507 L 552.584,167.417 L 552.604,167.341 L 552.625,167.271 L 552.632,167.195"/>
    <path style="fill: none; fill-opacity:0; stroke-width: 0.02; stroke: #dbdbce" d="M 550.216 164.411 L 550.043,164.411 L 549.876,164.418 L 549.703,164.418 L 549.55,164.432 L 549.383,164.453 L 549.217,164.467 L 549.057,164.481 L 548.89,164.515 L 548.745,164.543 L 548.599,164.564 L 548.453,164.599 L 548.307,164.64 L 548.175,164.675 L 548.051,164.717 L 547.926,164.772 L 547.787,164.814 L 547.69,164.862 L 547.578,164.904 L 547.474,164.96 L 547.391,165.022 L 547.301,165.078 L 547.224,165.126 L 547.148,165.189 L 547.093,165.251 L 547.037,165.321 L 546.981,165.383 L 546.954,165.439 L 546.919,165.508 L 546.898,165.564 L 546.891,165.64 L 546.884,165.695"/>
    <path style="fill: none; fill-opacity:0; stroke-width: 0.02; stroke: #dbdbce" d="M 552.993 165.695 L 552.993,165.633 L 552.986,165.564 L 552.959,165.501 L 552.931,165.425 L 552.896,165.369 L 552.841,165.293 L 552.785,165.237 L 552.729,165.168 L 552.646,165.119 L 552.584,165.05 L 552.5,164.994 L 552.389,164.946 L 552.299,164.876 L 552.195,164.842 L 552.084,164.786 L 551.959,164.731 L 551.827,164.689 L 551.695,164.647 L 551.563,164.612 L 551.424,164.585 L 551.279,164.55 L 551.126,164.515 L 550.98,164.494 L 550.827,164.467 L 550.675,164.453 L 550.515,164.432 L 550.348,164.418 L 550.175,164.418 L 550.008,164.411 L 549.848,164.411"/>
    <path style="fill: #a5a585" d="M 530.911 171.103 L 564.906,171.103 L 564.906,169.618 L 530.911,169.618 L 530.911,171.103z"/>
    <path style="fill: none; fill-opacity:0; stroke-width: 0.02; stroke: #494936" d="M 530.911 171.103 L 564.906,171.103 L 564.906,169.618 L 530.911,169.618 L 530.911,171.103"/>
    <path style="fill: #a5a585" d="M 545.204 155.275 L 579.199,155.275 L 579.199,132.02 L 545.204,132.02 L 545.204,155.275z"/>
    <path style="fill: none; fill-opacity:0; stroke-width: 0.02; stroke: #494936" d="M 545.204 155.275 L 579.199,155.275 L 579.199,132.02 L 545.204,132.02 L 545.204,155.275"/>
    <path style="fill: #7a7a5a" d="M 580.13 154.359 L 580.13,131.103 L 579.199,132.02 L 579.199,155.275 L 580.13,154.359z"/>
    <path style="fill: none; fill-opacity:0; stroke-width: 0.02; stroke: #494936" d="M 580.13 154.359 L 580.13,131.103 L 579.199,132.02 L 579.199,155.275 L 580.13,154.359"/>
    <path style="fill: #ffffff" d="M 546.884 153.797 L 577.533,153.797 L 577.533,133.887 L 546.884,133.887 L 546.884,153.797z"/>
    <path style="fill: none; fill-opacity:0; stroke-width: 0.02; stroke: #494936" d="M 546.884 153.797 L 577.533,153.797 L 577.533,133.887 L 546.884,133.887 L 546.884,153.797"/>
    <path style="fill: #93936c" d="M 546.884 156.4 L 575.478,156.4 L 568.051,163.849 L 539.456,163.849 L 546.884,156.4z"/>
    <path style="fill: none; fill-opacity:0; stroke-width: 0.02; stroke: #494936" d="M 546.884 156.4 L 575.478,156.4 L 568.051,163.849 L 539.456,163.849 L 546.884,156.4"/>
    <path style="fill: #7a7a5a" d="M 551.334 166.723 L 551.334,166.681 L 551.327,166.64 L 551.32,166.598 L 551.299,166.549 L 551.292,166.508 L 551.265,166.473 L 551.251,166.431 L 551.216,166.404 L 551.181,166.362 L 551.161,166.32 L 551.126,166.286 L 551.084,166.251 L 551.043,166.209 L 550.994,166.174 L 550.952,166.154 L 550.904,166.119 L 550.848,166.091 L 550.786,166.07 L 550.737,166.036 L 550.675,166.022 L 550.612,165.994 L 550.557,165.98 L 550.487,165.959 L 550.425,165.945 L 550.348,165.931 L 550.286,165.911 L 550.216,165.904 L 550.154,165.904 L 550.085,165.897 L 550.001,165.897 L 549.946,165.897 L 549.946,165.897 L 549.869,165.897 L 549.793,165.897 L 549.73,165.904 L 549.661,165.904 L 549.599,165.911 L 549.522,165.931 L 549.46,165.945 L 549.39,165.959 L 549.328,165.98 L 549.265,165.994 L 549.21,166.022 L 549.14,166.036 L 549.092,166.07 L 549.036,166.091 L 548.981,166.119 L 548.932,166.154 L 548.89,166.174 L 548.842,166.209 L 548.8,166.251 L 548.766,166.286 L 548.717,166.32 L 548.696,166.362 L 548.654,166.404 L 548.634,166.431 L 548.613,166.473 L 548.592,166.508 L 548.578,166.549 L 548.571,166.598 L 548.557,166.64 L 548.543,166.681 L 548.543,166.723 L 548.543,166.723 L 548.543,166.771 L 548.557,166.813 L 548.571,166.855 L 548.578,166.896 L 548.592,166.938 L 548.613,166.973 L 548.634,167.021 L 548.654,167.056 L 548.696,167.098 L 548.717,167.126 L 548.766,167.167 L 548.8,167.202 L 548.842,167.244 L 548.89,167.271 L 548.932,167.299 L 548.981,167.334 L 549.036,167.362 L 549.092,167.382 L 549.14,167.417 L 549.21,167.431 L 549.265,167.459 L 549.328,167.473 L 549.39,167.493 L 549.46,167.507 L 549.522,167.521 L 549.599,167.535 L 549.661,167.549 L 549.73,167.549 L 549.793,167.549 L 549.869,167.556 L 549.946,167.556 L 549.946,167.556 L 550.001,167.556 L 550.085,167.549 L 550.154,167.549 L 550.216,167.549 L 550.286,167.535 L 550.348,167.521 L 550.425,167.507 L 550.487,167.493 L 550.557,167.473 L 550.612,167.459 L 550.675,167.431 L 550.737,167.417 L 550.786,167.382 L 550.848,167.362 L 550.904,167.334 L 550.952,167.299 L 550.994,167.271 L 551.043,167.244 L 551.084,167.202 L 551.126,167.167 L 551.161,167.126 L 551.181,167.098 L 551.216,167.056 L 551.251,167.021 L 551.265,166.973 L 551.292,166.938 L 551.299,166.896 L 551.32,166.855 L 551.327,166.813 L 551.334,166.771 L 551.334,166.723z"/>
    <path style="fill: none; fill-opacity:0; stroke-width: 0.02; stroke: #dbdbce" d="M 551.154 166.64 L 551.154,166.598 L 551.147,166.556 L 551.147,166.522 L 551.126,166.494 L 551.112,166.438 L 551.105,166.417 L 551.07,166.376 L 551.043,166.334 L 551.022,166.306 L 550.994,166.279 L 550.952,166.251 L 550.918,166.202 L 550.876,166.174 L 550.834,166.154 L 550.8,166.119 L 550.744,166.091 L 550.702,166.077 L 550.654,166.043 L 550.605,166.029 L 550.543,166.001 L 550.487,165.987 L 550.425,165.973 L 550.369,165.952 L 550.307,165.938 L 550.244,165.931 L 550.175,165.911 L 550.119,165.904 L 550.043,165.897 L 549.987,165.897 L 549.918,165.897 L 549.855,165.897 L 549.855,165.897 L 549.786,165.897 L 549.724,165.897 L 549.654,165.897 L 549.599,165.904 L 549.529,165.911 L 549.474,165.931 L 549.397,165.938 L 549.342,165.952 L 549.293,165.973 L 549.224,165.987 L 549.168,166.001 L 549.099,166.029 L 549.064,166.043 L 549.002,166.077 L 548.96,166.091 L 548.911,166.119 L 548.87,166.154 L 548.828,166.174 L 548.786,166.202 L 548.752,166.251 L 548.717,166.279 L 548.689,166.306 L 548.654,166.334 L 548.641,166.376 L 548.613,166.417 L 548.599,166.438 L 548.585,166.494 L 548.571,166.522 L 548.564,166.556 L 548.557,166.598 L 548.557,166.64 L 548.557,166.64 L 548.557,166.674 L 548.564,166.716 L 548.571,166.758 L 548.585,166.778 L 548.599,166.82 L 548.613,166.862 L 548.641,166.896 L 548.654,166.931 L 548.689,166.973 L 548.717,166.994 L 548.752,167.028 L 548.786,167.063 L 548.828,167.098 L 548.87,167.119 L 548.911,167.153 L 548.96,167.174 L 549.002,167.202 L 549.064,167.23 L 549.099,167.244 L 549.168,167.271 L 549.224,167.292 L 549.293,167.299 L 549.342,167.32 L 549.397,167.334 L 549.474,167.341 L 549.529,167.362 L 549.599,167.375 L 549.654,167.375 L 549.724,167.375 L 549.786,167.375 L 549.855,167.375 L 549.855,167.375 L 549.918,167.375 L 549.987,167.375 L 550.043,167.375 L 550.119,167.375 L 550.175,167.362 L 550.244,167.341 L 550.307,167.334 L 550.369,167.32 L 550.425,167.299 L 550.487,167.292 L 550.543,167.271 L 550.605,167.244 L 550.654,167.23 L 550.702,167.202 L 550.744,167.174 L 550.8,167.153 L 550.834,167.119 L 550.876,167.098 L 550.918,167.063 L 550.952,167.028 L 550.994,166.994 L 551.022,166.973 L 551.043,166.931 L 551.07,166.896 L 551.105,166.862 L 551.112,166.82 L 551.126,166.778 L 551.147,166.758 L 551.147,166.716 L 551.154,166.674 L 551.154,166.64"/>
    <path style="fill: none; fill-opacity:0; stroke-width: 0.02; stroke: #626248" d="M 546.704 167.375 L 546.704,167.459 L 546.718,167.521 L 546.745,167.598 L 546.766,167.681 L 546.808,167.75 L 546.85,167.813 L 546.912,167.889 L 546.974,167.965 L 547.044,168.028 L 547.113,168.097 L 547.204,168.16 L 547.287,168.229 L 547.398,168.285 L 547.502,168.34 L 547.613,168.389 L 547.731,168.451 L 547.863,168.5 L 547.981,168.549 L 548.134,168.59 L 548.273,168.632 L 548.418,168.681 L 548.564,168.715 L 548.717,168.736 L 548.87,168.764 L 549.036,168.792 L 549.196,168.805 L 549.356,168.833 L 549.522,168.847 L 549.696,168.854 L 549.862,168.854 L 550.029,168.854"/>
    <path style="fill: none; fill-opacity:0; stroke-width: 0.02; stroke: #626248" d="M 549.654 168.854 L 549.828,168.854 L 549.987,168.854 L 550.161,168.84 L 550.314,168.819 L 550.473,168.805 L 550.64,168.792 L 550.786,168.764 L 550.945,168.729 L 551.084,168.694 L 551.237,168.667 L 551.383,168.625 L 551.515,168.583 L 551.646,168.535 L 551.771,168.472 L 551.896,168.424 L 552.001,168.368 L 552.112,168.313 L 552.209,168.243 L 552.299,168.188 L 552.389,168.111 L 552.466,168.056 L 552.542,167.986 L 552.604,167.903 L 552.646,167.827 L 552.709,167.764 L 552.736,167.681 L 552.771,167.605 L 552.799,167.521 L 552.799,167.459 L 552.813,167.375"/>
    <path style="fill: none; fill-opacity:0; stroke-width: 0.02; stroke: #626248" d="M 550.397 164.592 L 550.237,164.592 L 550.071,164.599 L 549.904,164.599 L 549.737,164.612 L 549.564,164.633 L 549.397,164.64 L 549.251,164.668 L 549.085,164.689 L 548.932,164.731 L 548.786,164.744 L 548.641,164.786 L 548.502,164.814 L 548.363,164.862 L 548.238,164.904 L 548.113,164.946 L 547.981,164.987 L 547.877,165.036 L 547.766,165.085 L 547.669,165.147 L 547.578,165.203 L 547.495,165.251 L 547.412,165.321 L 547.329,165.369 L 547.28,165.425 L 547.224,165.501 L 547.176,165.557 L 547.134,165.626 L 547.106,165.682 L 547.086,165.744 L 547.079,165.82 L 547.072,165.89"/>
    <path style="fill: none; fill-opacity:0; stroke-width: 0.02; stroke: #626248" d="M 553.188 165.89 L 553.174,165.813 L 553.167,165.744 L 553.153,165.682 L 553.118,165.612 L 553.077,165.55 L 553.028,165.48 L 552.972,165.425 L 552.91,165.362 L 552.841,165.293 L 552.757,165.237 L 552.674,165.175 L 552.584,165.119 L 552.473,165.071 L 552.375,165.022 L 552.257,164.973 L 552.146,164.918 L 552.021,164.876 L 551.889,164.842 L 551.744,164.8 L 551.605,164.772 L 551.466,164.731 L 551.32,164.703 L 551.167,164.675 L 551.001,164.647 L 550.855,164.633 L 550.695,164.612 L 550.529,164.599 L 550.355,164.599 L 550.203,164.592 L 550.029,164.592"/>
    <path style="fill: #7a7a5a" d="M 579.199 156.581 L 564.906,170.923 L 564.906,169.618 L 579.199,155.275 L 579.199,156.581z"/>
    <path style="fill: none; fill-opacity:0; stroke-width: 0.02; stroke: #494936" d="M 579.199 156.581 L 564.906,170.923 L 564.906,169.618 L 579.199,155.275 L 579.199,156.581"/>
    <path style="fill: #7a7a5a" d="M 574.375 154.179 L 574.375,154.533 L 577.158,154.533 L 577.158,154.179 L 574.375,154.179z"/>
    <path style="fill: none; fill-opacity:0; stroke-width: 0.02; stroke: #494936" d="M 574.375 154.179 L 574.375,154.533 L 577.158,154.533 L 577.158,154.179 L 574.375,154.179"/>
    <path style="fill: none; fill-opacity:0; stroke-width: 0.02; stroke: #000000" d="M 573.611 158.261 L 545.204,158.261"/>
    <path style="fill: none; fill-opacity:0; stroke-width: 0.02; stroke: #000000" d="M 571.764 160.128 L 543.358,160.128"/>
    <path style="fill: none; fill-opacity:0; stroke-width: 0.02; stroke: #000000" d="M 569.911 161.988 L 541.497,161.988"/>
    <path style="fill: #c9c9b6" d="M 546.135 131.103 L 580.13,131.103 L 579.199,132.02 L 545.204,132.02 L 546.135,131.103z"/>
    <path style="fill: none; fill-opacity:0; stroke-width: 0.02; stroke: #494936" d="M 546.135 131.103 L 580.13,131.103 L 579.199,132.02 L 545.204,132.02 L 546.135,131.103"/>
  </g>
  <g>
    <path style="fill: #b7b796" d="M 774.571 167.924 L 791.116,167.924 L 791.116,132.641 L 774.571,132.641 L 774.571,167.924z"/>
    <path style="fill: none; fill-opacity:0; stroke-width: 0.02; stroke: #000000" d="M 774.571 167.924 L 791.116,167.924 L 791.116,132.641 L 774.571,132.641 L 774.571,167.924"/>
    <path style="fill: none; fill-opacity:0; stroke-width: 0.2; stroke: #494936" d="M 774.571 167.924 L 791.116,167.924 L 791.116,132.641 L 774.571,132.641 L 774.571,167.924"/>
    <path style="fill: #c9c9b6" d="M 774.571 132.641 L 777.732,129.5 L 793.684,129.5 L 791.116,132.641 L 774.571,132.641z"/>
    <path style="fill: none; fill-opacity:0; stroke-width: 0.02; stroke: #000000" d="M 774.571 132.641 L 777.732,129.5 L 793.684,129.5 L 791.116,132.641 L 774.571,132.641"/>
    <path style="fill: none; fill-opacity:0; stroke-width: 0.2; stroke: #494936" d="M 774.571 132.641 L 777.732,129.5 L 793.684,129.5 L 791.116,132.641 L 774.571,132.641"/>
    <path style="fill: #7a7a5a" d="M 791.115 167.924 L 793.683,163.033 L 793.683,129.499 L 791.115,132.64 L 791.115,167.923 L 791.115,167.924z"/>
    <path style="fill: none; fill-opacity:0; stroke-width: 0.02; stroke: #000000" d="M 791.115 167.924 L 793.683,163.033 L 793.683,129.499 L 791.115,132.64 L 791.115,167.923 L 791.115,167.924"/>
    <path style="fill: none; fill-opacity:0; stroke-width: 0.2; stroke: #494936" d="M 791.115 167.924 L 793.683,163.033 L 793.683,129.499 L 791.115,132.64 L 791.115,167.923"/>
    <path style="fill: #b7b796" d="M 792.432 169.499 L 791.116,167.924 L 774.571,167.924 L 772.985,169.499 L 792.432,169.499 L 792.432,169.499z"/>
    <path style="fill: none; fill-opacity:0; stroke-width: 0.02; stroke: #000000" d="M 792.432 169.499 L 791.116,167.924 L 774.571,167.924 L 772.985,169.499 L 792.432,169.499 L 792.432,169.499"/>
    <path style="fill: none; fill-opacity:0; stroke-width: 0.2; stroke: #494936" d="M 792.432 169.499 L 791.116,167.924 L 774.571,167.924 L 772.985,169.499 L 792.432,169.499"/>
    <path style="fill: #b7b796" d="M 792.432 169.499 L 794.991,164.026 L 793.683,163.033 L 791.115,167.924 L 792.431,169.499 L 792.432,169.499z"/>
    <path style="fill: none; fill-opacity:0; stroke-width: 0.02; stroke: #000000" d="M 792.432 169.499 L 794.991,164.026 L 793.683,163.033 L 791.115,167.924 L 792.431,169.499 L 792.432,169.499"/>
    <path style="fill: none; fill-opacity:0; stroke-width: 0.2; stroke: #494936" d="M 792.432 169.499 L 794.991,164.026 L 793.683,163.033 L 791.115,167.924 L 792.431,169.499"/>
    <path style="fill: #b7b796" d="M 791.115 167.924 L 774.57,167.924 L 791.115,167.924z"/>
    <path style="fill: none; fill-opacity:0; stroke-width: 0.2; stroke: #494936" d="M 791.115 167.924 L 774.57,167.924"/>
    <path style="fill: #b7b796" d="M 793.683 163.033 L 791.115,167.924 L 793.683,163.033z"/>
    <path style="fill: none; fill-opacity:0; stroke-width: 0.2; stroke: #494936" d="M 793.683 163.033 L 791.115,167.924"/>
    <path style="fill: #b7b796" d="M 774.579 134.269 L 791.05,134.269 L 774.579,134.269z"/>
    <path style="fill: none; fill-opacity:0; stroke-width: 0.2; stroke: #494936" d="M 774.579 134.269 L 791.05,134.269"/>
    <path style="fill: #b7b796" d="M 774.565 134.469 L 791.036,134.469 L 774.565,134.469z"/>
    <path style="fill: none; fill-opacity:0; stroke-width: 0.2; stroke: #494936" d="M 774.565 134.469 L 791.036,134.469"/>
    <path style="fill: #b7b796" d="M 787.687 138.692 L 775.683,138.692 L 775.683,139.796 L 777.901,139.796 L 787.687,138.692z"/>
    <path style="fill: none; fill-opacity:0; stroke-width: 0.2; stroke: #494936" d="M 787.687 138.692 L 775.683,138.692 L 775.683,139.796 L 777.901,139.796"/>
    <path style="fill: #b7b796" d="M 787.687 140.74 L 775.683,140.74 L 775.683,141.845 L 777.901,141.845 L 787.687,140.74z"/>
    <path style="fill: none; fill-opacity:0; stroke-width: 0.2; stroke: #494936" d="M 787.687 140.74 L 775.683,140.74 L 775.683,141.845 L 777.901,141.845"/>
    <path style="fill: #b7b796" d="M 787.687 142.79 L 775.683,142.79 L 775.683,143.894 L 777.901,143.894 L 787.687,142.79z"/>
    <path style="fill: none; fill-opacity:0; stroke-width: 0.2; stroke: #494936" d="M 787.687 142.79 L 775.683,142.79 L 775.683,143.894 L 777.901,143.894"/>
    <path style="fill: #b7b796" d="M 787.687 144.838 L 775.683,144.838 L 775.683,145.943 L 777.901,145.943 L 787.687,144.838z"/>
    <path style="fill: none; fill-opacity:0; stroke-width: 0.2; stroke: #494936" d="M 787.687 144.838 L 775.683,144.838 L 775.683,145.943 L 777.901,145.943"/>
    <path style="fill: #b7b796" d="M 787.687 146.887 L 775.683,146.887 L 775.683,147.992 L 777.901,147.992 L 787.687,146.887z"/>
    <path style="fill: none; fill-opacity:0; stroke-width: 0.2; stroke: #494936" d="M 787.687 146.887 L 775.683,146.887 L 775.683,147.992 L 777.901,147.992"/>
    <path style="fill: #b7b796" d="M 787.687 148.936 L 775.683,148.936 L 775.683,150.041 L 777.901,150.041 L 787.687,148.936z"/>
    <path style="fill: none; fill-opacity:0; stroke-width: 0.2; stroke: #494936" d="M 787.687 148.936 L 775.683,148.936 L 775.683,150.041 L 777.901,150.041"/>
    <path style="fill: #b7b796" d="M 787.687 150.984 L 775.683,150.984 L 775.683,152.089 L 777.901,152.089 L 787.687,150.984z"/>
    <path style="fill: none; fill-opacity:0; stroke-width: 0.2; stroke: #494936" d="M 787.687 150.984 L 775.683,150.984 L 775.683,152.089 L 777.901,152.089"/>
    <path style="fill: #b7b796" d="M 787.687 153.034 L 775.683,153.034 L 775.683,154.139 L 777.901,154.139 L 787.687,153.034z"/>
    <path style="fill: none; fill-opacity:0; stroke-width: 0.2; stroke: #494936" d="M 787.687 153.034 L 775.683,153.034 L 775.683,154.139 L 777.901,154.139"/>
    <path style="fill: #b7b796" d="M 787.687 155.082 L 775.683,155.082 L 775.683,156.187 L 777.901,156.187 L 787.687,155.082z"/>
    <path style="fill: none; fill-opacity:0; stroke-width: 0.2; stroke: #494936" d="M 787.687 155.082 L 775.683,155.082 L 775.683,156.187 L 777.901,156.187"/>
    <path style="fill: #b7b796" d="M 787.687 157.132 L 775.683,157.132 L 775.683,158.236 L 777.901,158.236 L 787.687,157.132z"/>
    <path style="fill: none; fill-opacity:0; stroke-width: 0.2; stroke: #494936" d="M 787.687 157.132 L 775.683,157.132 L 775.683,158.236 L 777.901,158.236"/>
    <path style="fill: #b7b796" d="M 787.687 159.18 L 775.683,159.18 L 775.683,160.285 L 777.901,160.285 L 787.687,159.18z"/>
    <path style="fill: none; fill-opacity:0; stroke-width: 0.2; stroke: #494936" d="M 787.687 159.18 L 775.683,159.18 L 775.683,160.285 L 777.901,160.285"/>
    <path style="fill: #b7b796" d="M 787.687 161.228 L 775.683,161.228 L 775.683,162.333 L 777.901,162.333 L 787.687,161.228z"/>
    <path style="fill: none; fill-opacity:0; stroke-width: 0.2; stroke: #494936" d="M 787.687 161.228 L 775.683,161.228 L 775.683,162.333 L 777.901,162.333"/>
    <path style="fill: #b7b796" d="M 787.687 163.278 L 775.683,163.278 L 775.683,164.383 L 777.901,164.383 L 787.687,163.278z"/>
    <path style="fill: none; fill-opacity:0; stroke-width: 0.2; stroke: #494936" d="M 787.687 163.278 L 775.683,163.278 L 775.683,164.383 L 777.901,164.383"/>
    <path style="fill: #b7b796" d="M 787.687 165.326 L 775.683,165.326 L 775.683,166.431 L 777.901,166.431 L 787.687,165.326z"/>
    <path style="fill: none; fill-opacity:0; stroke-width: 0.2; stroke: #494936" d="M 787.687 165.326 L 775.683,165.326 L 775.683,166.431 L 777.901,166.431"/>
  </g>
  <g>
    <line style="fill: none; fill-opacity:0; stroke-width: 2; stroke: #000000" x1="580.143" y1="150.564" x2="764.746" y2="151.564"/>
    <polygon style="fill: #000000" points="772.246,151.604 762.219,156.55 764.746,151.564 762.274,146.55 "/>
    <polygon style="fill: none; fill-opacity:0; stroke-width: 2; stroke: #000000" points="772.246,151.604 762.219,156.55 764.746,151.564 762.274,146.55 "/>
  </g>
  <g>
    <path style="fill: #c9c9b6" d="M 545.204 223.09 L 579.199,223.09 L 564.906,237.433 L 530.911,237.433 L 545.204,223.09z"/>
    <path style="fill: none; fill-opacity:0; stroke-width: 0.02; stroke: #494936" d="M 545.204 223.09 L 579.199,223.09 L 564.906,237.433 L 530.911,237.433 L 545.204,223.09"/>
    <path style="fill: none; fill-opacity:0; stroke-width: 0.02; stroke: #dbdbce" d="M 546.509 235.01 L 546.509,235.086 L 546.523,235.149 L 546.544,235.232 L 546.572,235.315 L 546.614,235.378 L 546.662,235.454 L 546.725,235.524 L 546.787,235.586 L 546.85,235.662 L 546.933,235.739 L 547.016,235.801 L 547.106,235.857 L 547.211,235.912 L 547.308,235.975 L 547.433,236.023 L 547.544,236.086 L 547.669,236.134 L 547.808,236.183 L 547.946,236.225 L 548.078,236.266 L 548.224,236.308 L 548.37,236.35 L 548.523,236.37 L 548.689,236.398 L 548.849,236.412 L 549.015,236.44 L 549.168,236.461 L 549.342,236.482 L 549.515,236.488 L 549.682,236.495 L 549.848,236.495"/>
    <path style="fill: none; fill-opacity:0; stroke-width: 0.02; stroke: #dbdbce" d="M 549.481 236.495 L 549.647,236.495 L 549.807,236.488 L 549.967,236.475 L 550.133,236.454 L 550.3,236.44 L 550.452,236.412 L 550.605,236.398 L 550.765,236.364 L 550.911,236.329 L 551.063,236.287 L 551.195,236.245 L 551.334,236.204 L 551.466,236.155 L 551.591,236.107 L 551.702,236.058 L 551.82,236.003 L 551.931,235.94 L 552.028,235.885 L 552.125,235.815 L 552.209,235.746 L 552.285,235.676 L 552.348,235.614 L 552.417,235.537 L 552.473,235.461 L 552.514,235.399 L 552.563,235.322 L 552.584,235.232 L 552.604,235.156 L 552.625,235.086 L 552.632,235.01"/>
    <path style="fill: none; fill-opacity:0; stroke-width: 0.02; stroke: #dbdbce" d="M 550.216 232.226 L 550.043,232.226 L 549.876,232.233 L 549.703,232.233 L 549.55,232.247 L 549.383,232.268 L 549.217,232.282 L 549.057,232.295 L 548.89,232.33 L 548.745,232.358 L 548.599,232.379 L 548.453,232.413 L 548.307,232.455 L 548.175,232.49 L 548.051,232.532 L 547.926,232.587 L 547.787,232.629 L 547.69,232.677 L 547.578,232.719 L 547.474,232.774 L 547.391,232.837 L 547.301,232.892 L 547.224,232.941 L 547.148,233.004 L 547.093,233.066 L 547.037,233.135 L 546.981,233.198 L 546.954,233.253 L 546.919,233.323 L 546.898,233.378 L 546.891,233.455 L 546.884,233.51"/>
    <path style="fill: none; fill-opacity:0; stroke-width: 0.02; stroke: #dbdbce" d="M 552.993 233.51 L 552.993,233.448 L 552.986,233.378 L 552.959,233.316 L 552.931,233.24 L 552.896,233.184 L 552.841,233.108 L 552.785,233.052 L 552.729,232.983 L 552.646,232.934 L 552.584,232.865 L 552.5,232.809 L 552.389,232.761 L 552.299,232.691 L 552.195,232.656 L 552.084,232.601 L 551.959,232.545 L 551.827,232.504 L 551.695,232.462 L 551.563,232.427 L 551.424,232.4 L 551.279,232.365 L 551.126,232.33 L 550.98,232.309 L 550.827,232.282 L 550.675,232.268 L 550.515,232.247 L 550.348,232.233 L 550.175,232.233 L 550.008,232.226 L 549.848,232.226"/>
    <path style="fill: #a5a585" d="M 530.911 238.918 L 564.906,238.918 L 564.906,237.433 L 530.911,237.433 L 530.911,238.918z"/>
    <path style="fill: none; fill-opacity:0; stroke-width: 0.02; stroke: #494936" d="M 530.911 238.918 L 564.906,238.918 L 564.906,237.433 L 530.911,237.433 L 530.911,238.918"/>
    <path style="fill: #a5a585" d="M 545.204 223.09 L 579.199,223.09 L 579.199,199.835 L 545.204,199.835 L 545.204,223.09z"/>
    <path style="fill: none; fill-opacity:0; stroke-width: 0.02; stroke: #494936" d="M 545.204 223.09 L 579.199,223.09 L 579.199,199.835 L 545.204,199.835 L 545.204,223.09"/>
    <path style="fill: #7a7a5a" d="M 580.13 222.174 L 580.13,198.918 L 579.199,199.835 L 579.199,223.09 L 580.13,222.174z"/>
    <path style="fill: none; fill-opacity:0; stroke-width: 0.02; stroke: #494936" d="M 580.13 222.174 L 580.13,198.918 L 579.199,199.835 L 579.199,223.09 L 580.13,222.174"/>
    <path style="fill: #ffffff" d="M 546.884 221.612 L 577.533,221.612 L 577.533,201.702 L 546.884,201.702 L 546.884,221.612z"/>
    <path style="fill: none; fill-opacity:0; stroke-width: 0.02; stroke: #494936" d="M 546.884 221.612 L 577.533,221.612 L 577.533,201.702 L 546.884,201.702 L 546.884,221.612"/>
    <path style="fill: #93936c" d="M 546.884 224.215 L 575.478,224.215 L 568.051,231.664 L 539.456,231.664 L 546.884,224.215z"/>
    <path style="fill: none; fill-opacity:0; stroke-width: 0.02; stroke: #494936" d="M 546.884 224.215 L 575.478,224.215 L 568.051,231.664 L 539.456,231.664 L 546.884,224.215"/>
    <path style="fill: #7a7a5a" d="M 551.334 234.538 L 551.334,234.496 L 551.327,234.454 L 551.32,234.413 L 551.299,234.364 L 551.292,234.323 L 551.265,234.288 L 551.251,234.246 L 551.216,234.218 L 551.181,234.177 L 551.161,234.135 L 551.126,234.1 L 551.084,234.066 L 551.043,234.024 L 550.994,233.989 L 550.952,233.969 L 550.904,233.934 L 550.848,233.906 L 550.786,233.885 L 550.737,233.85 L 550.675,233.837 L 550.612,233.809 L 550.557,233.795 L 550.487,233.774 L 550.425,233.76 L 550.348,233.746 L 550.286,233.726 L 550.216,233.719 L 550.154,233.719 L 550.085,233.712 L 550.001,233.712 L 549.946,233.712 L 549.946,233.712 L 549.869,233.712 L 549.793,233.712 L 549.73,233.719 L 549.661,233.719 L 549.599,233.726 L 549.522,233.746 L 549.46,233.76 L 549.39,233.774 L 549.328,233.795 L 549.265,233.809 L 549.21,233.837 L 549.14,233.85 L 549.092,233.885 L 549.036,233.906 L 548.981,233.934 L 548.932,233.969 L 548.89,233.989 L 548.842,234.024 L 548.8,234.066 L 548.766,234.1 L 548.717,234.135 L 548.696,234.177 L 548.654,234.218 L 548.634,234.246 L 548.613,234.288 L 548.592,234.323 L 548.578,234.364 L 548.571,234.413 L 548.557,234.454 L 548.543,234.496 L 548.543,234.538 L 548.543,234.538 L 548.543,234.586 L 548.557,234.628 L 548.571,234.67 L 548.578,234.711 L 548.592,234.753 L 548.613,234.788 L 548.634,234.836 L 548.654,234.871 L 548.696,234.913 L 548.717,234.94 L 548.766,234.982 L 548.8,235.017 L 548.842,235.058 L 548.89,235.086 L 548.932,235.114 L 548.981,235.149 L 549.036,235.176 L 549.092,235.197 L 549.14,235.232 L 549.21,235.246 L 549.265,235.274 L 549.328,235.287 L 549.39,235.308 L 549.46,235.322 L 549.522,235.336 L 549.599,235.35 L 549.661,235.364 L 549.73,235.364 L 549.793,235.364 L 549.869,235.371 L 549.946,235.371 L 549.946,235.371 L 550.001,235.371 L 550.085,235.364 L 550.154,235.364 L 550.216,235.364 L 550.286,235.35 L 550.348,235.336 L 550.425,235.322 L 550.487,235.308 L 550.557,235.287 L 550.612,235.274 L 550.675,235.246 L 550.737,235.232 L 550.786,235.197 L 550.848,235.176 L 550.904,235.149 L 550.952,235.114 L 550.994,235.086 L 551.043,235.058 L 551.084,235.017 L 551.126,234.982 L 551.161,234.94 L 551.181,234.913 L 551.216,234.871 L 551.251,234.836 L 551.265,234.788 L 551.292,234.753 L 551.299,234.711 L 551.32,234.67 L 551.327,234.628 L 551.334,234.586 L 551.334,234.538z"/>
    <path style="fill: none; fill-opacity:0; stroke-width: 0.02; stroke: #dbdbce" d="M 551.154 234.454 L 551.154,234.413 L 551.147,234.371 L 551.147,234.336 L 551.126,234.309 L 551.112,234.253 L 551.105,234.232 L 551.07,234.191 L 551.043,234.149 L 551.022,234.121 L 550.994,234.093 L 550.952,234.066 L 550.918,234.017 L 550.876,233.989 L 550.834,233.969 L 550.8,233.934 L 550.744,233.906 L 550.702,233.892 L 550.654,233.857 L 550.605,233.844 L 550.543,233.816 L 550.487,233.802 L 550.425,233.788 L 550.369,233.767 L 550.307,233.753 L 550.244,233.746 L 550.175,233.726 L 550.119,233.719 L 550.043,233.712 L 549.987,233.712 L 549.918,233.712 L 549.855,233.712 L 549.855,233.712 L 549.786,233.712 L 549.724,233.712 L 549.654,233.712 L 549.599,233.719 L 549.529,233.726 L 549.474,233.746 L 549.397,233.753 L 549.342,233.767 L 549.293,233.788 L 549.224,233.802 L 549.168,233.816 L 549.099,233.844 L 549.064,233.857 L 549.002,233.892 L 548.96,233.906 L 548.911,233.934 L 548.87,233.969 L 548.828,233.989 L 548.786,234.017 L 548.752,234.066 L 548.717,234.093 L 548.689,234.121 L 548.654,234.149 L 548.641,234.191 L 548.613,234.232 L 548.599,234.253 L 548.585,234.309 L 548.571,234.336 L 548.564,234.371 L 548.557,234.413 L 548.557,234.454 L 548.557,234.454 L 548.557,234.489 L 548.564,234.531 L 548.571,234.572 L 548.585,234.593 L 548.599,234.635 L 548.613,234.677 L 548.641,234.711 L 548.654,234.746 L 548.689,234.788 L 548.717,234.808 L 548.752,234.843 L 548.786,234.878 L 548.828,234.913 L 548.87,234.933 L 548.911,234.968 L 548.96,234.989 L 549.002,235.017 L 549.064,235.045 L 549.099,235.058 L 549.168,235.086 L 549.224,235.107 L 549.293,235.114 L 549.342,235.135 L 549.397,235.149 L 549.474,235.156 L 549.529,235.176 L 549.599,235.19 L 549.654,235.19 L 549.724,235.19 L 549.786,235.19 L 549.855,235.19 L 549.855,235.19 L 549.918,235.19 L 549.987,235.19 L 550.043,235.19 L 550.119,235.19 L 550.175,235.176 L 550.244,235.156 L 550.307,235.149 L 550.369,235.135 L 550.425,235.114 L 550.487,235.107 L 550.543,235.086 L 550.605,235.058 L 550.654,235.045 L 550.702,235.017 L 550.744,234.989 L 550.8,234.968 L 550.834,234.933 L 550.876,234.913 L 550.918,234.878 L 550.952,234.843 L 550.994,234.808 L 551.022,234.788 L 551.043,234.746 L 551.07,234.711 L 551.105,234.677 L 551.112,234.635 L 551.126,234.593 L 551.147,234.572 L 551.147,234.531 L 551.154,234.489 L 551.154,234.454"/>
    <path style="fill: none; fill-opacity:0; stroke-width: 0.02; stroke: #626248" d="M 546.704 235.19 L 546.704,235.274 L 546.718,235.336 L 546.745,235.412 L 546.766,235.496 L 546.808,235.565 L 546.85,235.628 L 546.912,235.704 L 546.974,235.78 L 547.044,235.843 L 547.113,235.912 L 547.204,235.975 L 547.287,236.044 L 547.398,236.1 L 547.502,236.155 L 547.613,236.204 L 547.731,236.266 L 547.863,236.315 L 547.981,236.364 L 548.134,236.405 L 548.273,236.447 L 548.418,236.495 L 548.564,236.53 L 548.717,236.551 L 548.87,236.579 L 549.036,236.606 L 549.196,236.62 L 549.356,236.648 L 549.522,236.662 L 549.696,236.669 L 549.862,236.669 L 550.029,236.669"/>
    <path style="fill: none; fill-opacity:0; stroke-width: 0.02; stroke: #626248" d="M 549.654 236.669 L 549.828,236.669 L 549.987,236.669 L 550.161,236.655 L 550.314,236.634 L 550.473,236.62 L 550.64,236.606 L 550.786,236.579 L 550.945,236.544 L 551.084,236.509 L 551.237,236.482 L 551.383,236.44 L 551.515,236.398 L 551.646,236.35 L 551.771,236.287 L 551.896,236.239 L 552.001,236.183 L 552.112,236.127 L 552.209,236.058 L 552.299,236.003 L 552.389,235.926 L 552.466,235.871 L 552.542,235.801 L 552.604,235.718 L 552.646,235.642 L 552.709,235.579 L 552.736,235.496 L 552.771,235.419 L 552.799,235.336 L 552.799,235.274 L 552.813,235.19"/>
    <path style="fill: none; fill-opacity:0; stroke-width: 0.02; stroke: #626248" d="M 550.397 232.407 L 550.237,232.407 L 550.071,232.413 L 549.904,232.413 L 549.737,232.427 L 549.564,232.448 L 549.397,232.455 L 549.251,232.483 L 549.085,232.504 L 548.932,232.545 L 548.786,232.559 L 548.641,232.601 L 548.502,232.629 L 548.363,232.677 L 548.238,232.719 L 548.113,232.761 L 547.981,232.802 L 547.877,232.851 L 547.766,232.899 L 547.669,232.962 L 547.578,233.017 L 547.495,233.066 L 547.412,233.135 L 547.329,233.184 L 547.28,233.24 L 547.224,233.316 L 547.176,233.371 L 547.134,233.441 L 547.106,233.496 L 547.086,233.559 L 547.079,233.635 L 547.072,233.705"/>
    <path style="fill: none; fill-opacity:0; stroke-width: 0.02; stroke: #626248" d="M 553.188 233.705 L 553.174,233.628 L 553.167,233.559 L 553.153,233.496 L 553.118,233.427 L 553.077,233.365 L 553.028,233.295 L 552.972,233.24 L 552.91,233.177 L 552.841,233.108 L 552.757,233.052 L 552.674,232.99 L 552.584,232.934 L 552.473,232.886 L 552.375,232.837 L 552.257,232.788 L 552.146,232.733 L 552.021,232.691 L 551.889,232.656 L 551.744,232.615 L 551.605,232.587 L 551.466,232.545 L 551.32,232.518 L 551.167,232.49 L 551.001,232.462 L 550.855,232.448 L 550.695,232.427 L 550.529,232.413 L 550.355,232.413 L 550.203,232.407 L 550.029,232.407"/>
    <path style="fill: #7a7a5a" d="M 579.199 224.395 L 564.906,238.738 L 564.906,237.433 L 579.199,223.09 L 579.199,224.395z"/>
    <path style="fill: none; fill-opacity:0; stroke-width: 0.02; stroke: #494936" d="M 579.199 224.395 L 564.906,238.738 L 564.906,237.433 L 579.199,223.09 L 579.199,224.395"/>
    <path style="fill: #7a7a5a" d="M 574.375 221.993 L 574.375,222.348 L 577.158,222.348 L 577.158,221.993 L 574.375,221.993z"/>
    <path style="fill: none; fill-opacity:0; stroke-width: 0.02; stroke: #494936" d="M 574.375 221.993 L 574.375,222.348 L 577.158,222.348 L 577.158,221.993 L 574.375,221.993"/>
    <path style="fill: none; fill-opacity:0; stroke-width: 0.02; stroke: #000000" d="M 573.611 226.075 L 545.204,226.075"/>
    <path style="fill: none; fill-opacity:0; stroke-width: 0.02; stroke: #000000" d="M 571.764 227.943 L 543.358,227.943"/>
    <path style="fill: none; fill-opacity:0; stroke-width: 0.02; stroke: #000000" d="M 569.911 229.803 L 541.497,229.803"/>
    <path style="fill: #c9c9b6" d="M 546.135 198.918 L 580.13,198.918 L 579.199,199.835 L 545.204,199.835 L 546.135,198.918z"/>
    <path style="fill: none; fill-opacity:0; stroke-width: 0.02; stroke: #494936" d="M 546.135 198.918 L 580.13,198.918 L 579.199,199.835 L 545.204,199.835 L 546.135,198.918"/>
  </g>
  <g>
    <path style="fill: #b7b796" d="M 774.571 235.739 L 791.116,235.739 L 791.116,200.456 L 774.571,200.456 L 774.571,235.739z"/>
    <path style="fill: none; fill-opacity:0; stroke-width: 0.02; stroke: #000000" d="M 774.571 235.739 L 791.116,235.739 L 791.116,200.456 L 774.571,200.456 L 774.571,235.739"/>
    <path style="fill: none; fill-opacity:0; stroke-width: 0.2; stroke: #494936" d="M 774.571 235.739 L 791.116,235.739 L 791.116,200.456 L 774.571,200.456 L 774.571,235.739"/>
    <path style="fill: #c9c9b6" d="M 774.571 200.456 L 777.732,197.315 L 793.684,197.315 L 791.116,200.456 L 774.571,200.456z"/>
    <path style="fill: none; fill-opacity:0; stroke-width: 0.02; stroke: #000000" d="M 774.571 200.456 L 777.732,197.315 L 793.684,197.315 L 791.116,200.456 L 774.571,200.456"/>
    <path style="fill: none; fill-opacity:0; stroke-width: 0.2; stroke: #494936" d="M 774.571 200.456 L 777.732,197.315 L 793.684,197.315 L 791.116,200.456 L 774.571,200.456"/>
    <path style="fill: #7a7a5a" d="M 791.115 235.739 L 793.683,230.847 L 793.683,197.314 L 791.115,200.455 L 791.115,235.738 L 791.115,235.739z"/>
    <path style="fill: none; fill-opacity:0; stroke-width: 0.02; stroke: #000000" d="M 791.115 235.739 L 793.683,230.847 L 793.683,197.314 L 791.115,200.455 L 791.115,235.738 L 791.115,235.739"/>
    <path style="fill: none; fill-opacity:0; stroke-width: 0.2; stroke: #494936" d="M 791.115 235.739 L 793.683,230.847 L 793.683,197.314 L 791.115,200.455 L 791.115,235.738"/>
    <path style="fill: #b7b796" d="M 792.432 237.314 L 791.116,235.739 L 774.571,235.739 L 772.985,237.314 L 792.432,237.314 L 792.432,237.314z"/>
    <path style="fill: none; fill-opacity:0; stroke-width: 0.02; stroke: #000000" d="M 792.432 237.314 L 791.116,235.739 L 774.571,235.739 L 772.985,237.314 L 792.432,237.314 L 792.432,237.314"/>
    <path style="fill: none; fill-opacity:0; stroke-width: 0.2; stroke: #494936" d="M 792.432 237.314 L 791.116,235.739 L 774.571,235.739 L 772.985,237.314 L 792.432,237.314"/>
    <path style="fill: #b7b796" d="M 792.432 237.314 L 794.991,231.841 L 793.683,230.847 L 791.115,235.739 L 792.431,237.314 L 792.432,237.314z"/>
    <path style="fill: none; fill-opacity:0; stroke-width: 0.02; stroke: #000000" d="M 792.432 237.314 L 794.991,231.841 L 793.683,230.847 L 791.115,235.739 L 792.431,237.314 L 792.432,237.314"/>
    <path style="fill: none; fill-opacity:0; stroke-width: 0.2; stroke: #494936" d="M 792.432 237.314 L 794.991,231.841 L 793.683,230.847 L 791.115,235.739 L 792.431,237.314"/>
    <path style="fill: #b7b796" d="M 791.115 235.739 L 774.57,235.739 L 791.115,235.739z"/>
    <path style="fill: none; fill-opacity:0; stroke-width: 0.2; stroke: #494936" d="M 791.115 235.739 L 774.57,235.739"/>
    <path style="fill: #b7b796" d="M 793.683 230.847 L 791.115,235.739 L 793.683,230.847z"/>
    <path style="fill: none; fill-opacity:0; stroke-width: 0.2; stroke: #494936" d="M 793.683 230.847 L 791.115,235.739"/>
    <path style="fill: #b7b796" d="M 774.579 202.084 L 791.05,202.084 L 774.579,202.084z"/>
    <path style="fill: none; fill-opacity:0; stroke-width: 0.2; stroke: #494936" d="M 774.579 202.084 L 791.05,202.084"/>
    <path style="fill: #b7b796" d="M 774.565 202.284 L 791.036,202.284 L 774.565,202.284z"/>
    <path style="fill: none; fill-opacity:0; stroke-width: 0.2; stroke: #494936" d="M 774.565 202.284 L 791.036,202.284"/>
    <path style="fill: #b7b796" d="M 787.687 206.507 L 775.683,206.507 L 775.683,207.611 L 777.901,207.611 L 787.687,206.507z"/>
    <path style="fill: none; fill-opacity:0; stroke-width: 0.2; stroke: #494936" d="M 787.687 206.507 L 775.683,206.507 L 775.683,207.611 L 777.901,207.611"/>
    <path style="fill: #b7b796" d="M 787.687 208.555 L 775.683,208.555 L 775.683,209.66 L 777.901,209.66 L 787.687,208.555z"/>
    <path style="fill: none; fill-opacity:0; stroke-width: 0.2; stroke: #494936" d="M 787.687 208.555 L 775.683,208.555 L 775.683,209.66 L 777.901,209.66"/>
    <path style="fill: #b7b796" d="M 787.687 210.604 L 775.683,210.604 L 775.683,211.709 L 777.901,211.709 L 787.687,210.604z"/>
    <path style="fill: none; fill-opacity:0; stroke-width: 0.2; stroke: #494936" d="M 787.687 210.604 L 775.683,210.604 L 775.683,211.709 L 777.901,211.709"/>
    <path style="fill: #b7b796" d="M 787.687 212.653 L 775.683,212.653 L 775.683,213.758 L 777.901,213.758 L 787.687,212.653z"/>
    <path style="fill: none; fill-opacity:0; stroke-width: 0.2; stroke: #494936" d="M 787.687 212.653 L 775.683,212.653 L 775.683,213.758 L 777.901,213.758"/>
    <path style="fill: #b7b796" d="M 787.687 214.702 L 775.683,214.702 L 775.683,215.807 L 777.901,215.807 L 787.687,214.702z"/>
    <path style="fill: none; fill-opacity:0; stroke-width: 0.2; stroke: #494936" d="M 787.687 214.702 L 775.683,214.702 L 775.683,215.807 L 777.901,215.807"/>
    <path style="fill: #b7b796" d="M 787.687 216.751 L 775.683,216.751 L 775.683,217.856 L 777.901,217.856 L 787.687,216.751z"/>
    <path style="fill: none; fill-opacity:0; stroke-width: 0.2; stroke: #494936" d="M 787.687 216.751 L 775.683,216.751 L 775.683,217.856 L 777.901,217.856"/>
    <path style="fill: #b7b796" d="M 787.687 218.799 L 775.683,218.799 L 775.683,219.904 L 777.901,219.904 L 787.687,218.799z"/>
    <path style="fill: none; fill-opacity:0; stroke-width: 0.2; stroke: #494936" d="M 787.687 218.799 L 775.683,218.799 L 775.683,219.904 L 777.901,219.904"/>
    <path style="fill: #b7b796" d="M 787.687 220.849 L 775.683,220.849 L 775.683,221.953 L 777.901,221.953 L 787.687,220.849z"/>
    <path style="fill: none; fill-opacity:0; stroke-width: 0.2; stroke: #494936" d="M 787.687 220.849 L 775.683,220.849 L 775.683,221.953 L 777.901,221.953"/>
    <path style="fill: #b7b796" d="M 787.687 222.897 L 775.683,222.897 L 775.683,224.002 L 777.901,224.002 L 787.687,222.897z"/>
    <path style="fill: none; fill-opacity:0; stroke-width: 0.2; stroke: #494936" d="M 787.687 222.897 L 775.683,222.897 L 775.683,224.002 L 777.901,224.002"/>
    <path style="fill: #b7b796" d="M 787.687 224.946 L 775.683,224.946 L 775.683,226.051 L 777.901,226.051 L 787.687,224.946z"/>
    <path style="fill: none; fill-opacity:0; stroke-width: 0.2; stroke: #494936" d="M 787.687 224.946 L 775.683,224.946 L 775.683,226.051 L 777.901,226.051"/>
    <path style="fill: #b7b796" d="M 787.687 226.995 L 775.683,226.995 L 775.683,228.1 L 777.901,228.1 L 787.687,226.995z"/>
    <path style="fill: none; fill-opacity:0; stroke-width: 0.2; stroke: #494936" d="M 787.687 226.995 L 775.683,226.995 L 775.683,228.1 L 777.901,228.1"/>
    <path style="fill: #b7b796" d="M 787.687 229.043 L 775.683,229.043 L 775.683,230.148 L 777.901,230.148 L 787.687,229.043z"/>
    <path style="fill: none; fill-opacity:0; stroke-width: 0.2; stroke: #494936" d="M 787.687 229.043 L 775.683,229.043 L 775.683,230.148 L 777.901,230.148"/>
    <path style="fill: #b7b796" d="M 787.687 231.093 L 775.683,231.093 L 775.683,232.198 L 777.901,232.198 L 787.687,231.093z"/>
    <path style="fill: none; fill-opacity:0; stroke-width: 0.2; stroke: #494936" d="M 787.687 231.093 L 775.683,231.093 L 775.683,232.198 L 777.901,232.198"/>
    <path style="fill: #b7b796" d="M 787.687 233.141 L 775.683,233.141 L 775.683,234.246 L 777.901,234.246 L 787.687,233.141z"/>
    <path style="fill: none; fill-opacity:0; stroke-width: 0.2; stroke: #494936" d="M 787.687 233.141 L 775.683,233.141 L 775.683,234.246 L 777.901,234.246"/>
  </g>
  <g>
    <line style="fill: none; fill-opacity:0; stroke-width: 2; stroke: #000000" x1="774.482" y1="219.431" x2="589.879" y2="218.431"/>
    <polygon style="fill: #000000" points="582.379,218.391 592.406,213.445 589.879,218.431 592.352,223.445 "/>
    <polygon style="fill: none; fill-opacity:0; stroke-width: 2; stroke: #000000" points="582.379,218.391 592.406,213.445 589.879,218.431 592.352,223.445 "/>
  </g>
  <text font-size="12.7998" style="fill: #000000;text-anchor:start;font-family:sans-serif;font-style:normal;font-weight:normal" x="633.094" y="142.459">
    <tspan x="633.094" y="142.459">svn commit</tspan>
  </text>
  <text font-size="12.7998" style="fill: #000000;text-anchor:start;font-family:sans-serif;font-style:normal;font-weight:normal" x="628.269" y="203.709">
    <tspan x="628.269" y="203.709">svn checkout</tspan>
  </text>
</svg>
