<!-- Created with Inkscape (http://www.inkscape.org/) -->
<svg xmlns:rdf="http://www.w3.org/1999/02/22-rdf-syntax-ns#" xmlns="http://www.w3.org/2000/svg" height="8.24" width="177.8" version="1.1" xmlns:cc="http://creativecommons.org/ns#" xmlns:dc="http://purl.org/dc/elements/1.1/">
	<metadata>
		<rdf:RDF>
			<cc:Work rdf:about="">
				<dc:format>image/svg+xml</dc:format>
				<dc:type rdf:resource="http://purl.org/dc/dcmitype/StillImage"/>
				<dc:title/>
			</cc:Work>
		</rdf:RDF>
	</metadata>
	<g transform="translate(-1.7305416,-736.28174)">
		<g style="letter-spacing:0px;word-spacing:0px;" font-weight="normal" font-size="40px" font-style="normal" font-stretch="normal" line-height="125%" font-variant="normal" font-family="DejaVu Sans Mono" fill="#000">
			<path d="m4.231,740.6-0.2681,0c-0.4717,0-0.8276,0.0835-1.068,0.2505-0.2373,0.1641-0.356,0.4102-0.356,0.7383-0.0000014,0.2959,0.08935,0.5259,0.2681,0.6899,0.1787,0.1641,0.4263,0.2461,0.7427,0.2461,0.4453,0,0.7954-0.1538,1.05-0.4614,0.2549-0.3106,0.3838-0.7383,0.3867-1.283v-0.1802h-0.7559m1.569-0.334,0,2.808-0.813,0,0-0.7295c-0.1729,0.293-0.3911,0.5098-0.6548,0.6504-0.2607,0.1377-0.5786,0.2065-0.9536,0.2065-0.501,0-0.9009-0.1406-1.2-0.4219-0.2988-0.2842-0.4482-0.6636-0.4482-1.138-6E-7-0.5478,0.1831-0.9639,0.5493-1.248,0.3691-0.2842,0.9097-0.4263,1.622-0.4263h1.085v-0.1274c-0.00293-0.3926-0.1025-0.6768-0.2988-0.8525-0.1963-0.1787-0.5098-0.2681-0.9404-0.2681-0.2754,0-0.5537,0.0396-0.835,0.1186-0.2813,0.0791-0.5552,0.1948-0.8218,0.3472v-0.8086c0.2988-0.1142,0.5845-0.1992,0.8569-0.2549,0.2754-0.0586,0.542-0.0879,0.7998-0.0879,0.4072,0.00001,0.7544,0.0601,1.042,0.1802,0.29,0.1201,0.5244,0.3003,0.7031,0.5405,0.1113,0.1465,0.1904,0.3281,0.2373,0.5449,0.04687,0.2139,0.07031,0.5361,0.07031,0.9668"/>
			<path d="m11.18,740.1,0,3.05-0.813,0,0-3.05c-0.000003-0.4424-0.07764-0.7676-0.2329-0.9756s-0.3984-0.312-0.7295-0.312c-0.3779,0-0.6694,0.1348-0.8745,0.4043-0.2022,0.2666-0.3032,0.6504-0.3032,1.151v2.782h-0.8086v-4.922h0.8086v0.7383c0.1436-0.2812,0.3384-0.4936,0.5845-0.6372,0.2461-0.1465,0.5376-0.2197,0.8745-0.2197,0.501,0.00001,0.8745,0.1655,1.121,0.4966,0.249,0.3281,0.3735,0.8262,0.3735,1.494"/>
			<path d="m15.74,738.8,0-2.544,0.8086,0,0,6.838-0.8086,0,0-0.6196c-0.1348,0.2432-0.3149,0.4292-0.5405,0.5581-0.2227,0.126-0.4805,0.189-0.7734,0.189-0.5947,0-1.063-0.23-1.406-0.6899-0.3398-0.4629-0.5098-1.1-0.5098-1.912,0-0.7998,0.1714-1.427,0.5142-1.881,0.3428-0.457,0.8101-0.6855,1.402-0.6856,0.2959,0.00001,0.5566,0.0645,0.7822,0.1934,0.2256,0.126,0.4028,0.3106,0.5317,0.5537m-2.377,1.837c-0.000001,0.627,0.09961,1.1,0.2988,1.419,0.1992,0.3193,0.4937,0.479,0.8833,0.479s0.6855-0.1611,0.8877-0.4834c0.2051-0.3223,0.3076-0.7939,0.3076-1.415-0.000004-0.624-0.1025-1.096-0.3076-1.415-0.2022-0.3223-0.498-0.4834-0.8877-0.4834-0.3896,0-0.6841,0.1597-0.8833,0.479s-0.2988,0.7925-0.2988,1.419"/>
			<path d="m22.46,739.2c-0.1729-0.1348-0.3486-0.2329-0.5273-0.2944s-0.375-0.0923-0.5889-0.0923c-0.5039,0.00001-0.8892,0.1582-1.156,0.4746-0.2666,0.3164-0.3999,0.7734-0.3999,1.371v2.448h-0.813v-4.922h0.813v0.9624c0.1348-0.3486,0.3413-0.6152,0.6196-0.7998,0.2812-0.1875,0.6138-0.2812,0.9976-0.2812,0.1992,0.00001,0.3852,0.0249,0.5581,0.0747,0.1728,0.0498,0.3384,0.1274,0.4966,0.2329v0.8262"/>
			<path d="m27.69,740.5,0,0.3955-3.502,0,0,0.0264c-0.000001,0.5361,0.1392,0.9507,0.4175,1.244,0.2812,0.293,0.6768,0.4394,1.187,0.4394,0.2578,0,0.5273-0.041,0.8086-0.123,0.2812-0.082,0.5815-0.2066,0.9009-0.3735v0.8042c-0.3076,0.126-0.605,0.2197-0.8921,0.2812-0.2842,0.0644-0.5596,0.0967-0.8262,0.0967-0.7647,0-1.362-0.2285-1.793-0.6856-0.4307-0.46-0.646-1.093-0.646-1.898,0-0.7852,0.2109-1.412,0.6328-1.881,0.4219-0.4688,0.9844-0.7031,1.688-0.7031,0.6269,0.00001,1.121,0.2124,1.481,0.6372,0.3633,0.4248,0.5449,1.005,0.5449,1.74m-0.8086-0.2373c-0.01172-0.4746-0.1245-0.835-0.3384-1.081-0.2109-0.249-0.5156-0.3735-0.9141-0.3735-0.3897,0-0.7105,0.1289-0.9624,0.3867-0.252,0.2578-0.4014,0.6152-0.4482,1.072l2.663-0.004"/>
			<path d="m32.49,738.4,0,0.791c-0.2314-0.1348-0.4644-0.2358-0.6987-0.3032-0.2344-0.0674-0.4731-0.1011-0.7163-0.1011-0.3662,0-0.6401,0.0601-0.8218,0.1802-0.1787,0.1172-0.2681,0.2974-0.2681,0.5405-0.000002,0.2197,0.06738,0.3838,0.2021,0.4922,0.1348,0.1084,0.4702,0.2139,1.006,0.3164l0.3252,0.0615c0.4014,0.0762,0.7046,0.2285,0.9097,0.457,0.208,0.2285,0.312,0.5259,0.312,0.8921-0.000005,0.4863-0.1729,0.8672-0.5186,1.143-0.3457,0.2725-0.8262,0.4087-1.441,0.4087-0.2432,0-0.498-0.0264-0.7646-0.0791-0.2666-0.0498-0.5552-0.126-0.8657-0.2285v-0.835c0.3018,0.1553,0.5903,0.2725,0.8657,0.3516,0.2754,0.0762,0.5361,0.1143,0.7822,0.1143,0.3574,0,0.6343-0.0718,0.8306-0.2153,0.1963-0.1465,0.2944-0.3501,0.2944-0.6108-0.000004-0.375-0.3589-0.6343-1.077-0.7778l-0.03516-0.009-0.3032-0.0615c-0.4658-0.0908-0.8057-0.2432-1.02-0.457-0.2139-0.2168-0.3208-0.5112-0.3208-0.8833-0.000001-0.4717,0.1597-0.835,0.479-1.09,0.3193-0.2578,0.7749-0.3867,1.367-0.3867,0.2637,0.00001,0.5171,0.0249,0.7603,0.0747,0.2432,0.0469,0.4819,0.1187,0.7163,0.2153"/>
			<path d="m35.78,741.8,1.107,0,0,1.34-1.107,0,0-1.34"/>
			<path d="m43.66,740.1,0,3.05-0.813,0,0-3.05c-0.000003-0.4424-0.07764-0.7676-0.2329-0.9756s-0.3984-0.312-0.7295-0.312c-0.3779,0-0.6694,0.1348-0.8745,0.4043-0.2022,0.2666-0.3032,0.6504-0.3032,1.151v2.782h-0.8086v-6.838h0.8086v2.654c0.1436-0.2812,0.3384-0.4936,0.5845-0.6372,0.2461-0.1465,0.5376-0.2197,0.8745-0.2197,0.501,0.00001,0.8745,0.1655,1.121,0.4966,0.249,0.3281,0.3735,0.8262,0.3735,1.494"/>
			<path d="m49.35,740.5,0,0.3955-3.502,0,0,0.0264c-0.000001,0.5361,0.1392,0.9507,0.4175,1.244,0.2812,0.293,0.6768,0.4394,1.187,0.4394,0.2578,0,0.5273-0.041,0.8086-0.123,0.2812-0.082,0.5815-0.2066,0.9009-0.3735v0.8042c-0.3076,0.126-0.605,0.2197-0.8921,0.2812-0.2842,0.0644-0.5596,0.0967-0.8262,0.0967-0.7647,0-1.362-0.2285-1.793-0.6856-0.4307-0.46-0.646-1.093-0.646-1.898,0-0.7852,0.2109-1.412,0.6328-1.881,0.4219-0.4688,0.9844-0.7031,1.688-0.7031,0.6269,0.00001,1.121,0.2124,1.481,0.6372,0.3633,0.4248,0.5449,1.005,0.5449,1.74m-0.8086-0.2373c-0.01172-0.4746-0.1245-0.835-0.3384-1.081-0.2109-0.249-0.5156-0.3735-0.9141-0.3735-0.3897,0-0.7105,0.1289-0.9624,0.3867-0.252,0.2578-0.4014,0.6152-0.4482,1.072l2.663-0.004"/>
			<path d="m54.95,739.2c-0.1729-0.1348-0.3486-0.2329-0.5273-0.2944s-0.375-0.0923-0.5889-0.0923c-0.5039,0.00001-0.8892,0.1582-1.156,0.4746-0.2666,0.3164-0.3999,0.7734-0.3999,1.371v2.448h-0.813v-4.922h0.813v0.9624c0.1348-0.3486,0.3413-0.6152,0.6196-0.7998,0.2812-0.1875,0.6138-0.2812,0.9976-0.2812,0.1992,0.00001,0.3852,0.0249,0.5581,0.0747,0.1728,0.0498,0.3384,0.1274,0.4966,0.2329v0.8262"/>
			<path d="m59.91,740.1,0,3.05-0.813,0,0-3.05c-0.000004-0.4424-0.07764-0.7676-0.2329-0.9756s-0.3984-0.312-0.7295-0.312c-0.3779,0-0.6694,0.1348-0.8745,0.4043-0.2022,0.2666-0.3032,0.6504-0.3032,1.151v2.782h-0.8086v-4.922h0.8086v0.7383c0.1436-0.2812,0.3384-0.4936,0.5845-0.6372,0.2461-0.1465,0.5376-0.2197,0.8745-0.2197,0.501,0.00001,0.8745,0.1655,1.121,0.4966,0.249,0.3281,0.3735,0.8262,0.3735,1.494"/>
			<path d="m63.79,740.6-0.2681,0c-0.4717,0-0.8276,0.0835-1.068,0.2505-0.2373,0.1641-0.356,0.4102-0.356,0.7383-0.000002,0.2959,0.08935,0.5259,0.2681,0.6899,0.1787,0.1641,0.4263,0.2461,0.7427,0.2461,0.4453,0,0.7954-0.1538,1.05-0.4614,0.2549-0.3106,0.3838-0.7383,0.3867-1.283v-0.1802h-0.7559m1.569-0.334,0,2.808-0.813,0,0-0.7295c-0.1729,0.293-0.3911,0.5098-0.6548,0.6504-0.2607,0.1377-0.5786,0.2065-0.9536,0.2065-0.501,0-0.9009-0.1406-1.2-0.4219-0.2988-0.2842-0.4482-0.6636-0.4482-1.138,0-0.5478,0.1831-0.9639,0.5493-1.248,0.3691-0.2842,0.9097-0.4263,1.622-0.4263h1.085v-0.1274c-0.0029-0.3926-0.1025-0.6768-0.2988-0.8525-0.1963-0.1787-0.5098-0.2681-0.9404-0.2681-0.2754,0-0.5537,0.0396-0.835,0.1186-0.2813,0.0791-0.5552,0.1948-0.8218,0.3472v-0.8086c0.2988-0.1142,0.5845-0.1992,0.8569-0.2549,0.2754-0.0586,0.542-0.0879,0.7998-0.0879,0.4072,0.00001,0.7544,0.0601,1.042,0.1802,0.29,0.1201,0.5244,0.3003,0.7031,0.5405,0.1113,0.1465,0.1904,0.3281,0.2373,0.5449,0.04687,0.2139,0.07031,0.5361,0.07031,0.9668"/>
			<path d="m70.73,740.1,0,3.05-0.813,0,0-3.05c-0.000004-0.4424-0.07764-0.7676-0.2329-0.9756s-0.3984-0.312-0.7295-0.312c-0.3779,0-0.6694,0.1348-0.8745,0.4043-0.2022,0.2666-0.3032,0.6504-0.3032,1.151v2.782h-0.8086v-4.922h0.8086v0.7383c0.1436-0.2812,0.3384-0.4936,0.5845-0.6372,0.2461-0.1465,0.5376-0.2197,0.8745-0.2197,0.501,0.00001,0.8745,0.1655,1.121,0.4966,0.249,0.3281,0.3735,0.8262,0.3735,1.494"/>
			<path d="m75.3,738.8,0-2.544,0.8086,0,0,6.838-0.8086,0,0-0.6196c-0.1348,0.2432-0.3149,0.4292-0.5405,0.5581-0.2227,0.126-0.4805,0.189-0.7734,0.189-0.5947,0-1.063-0.23-1.406-0.6899-0.3398-0.4629-0.5098-1.1-0.5098-1.912-0.000001-0.7998,0.1714-1.427,0.5142-1.881,0.3428-0.457,0.8101-0.6855,1.402-0.6856,0.2959,0.00001,0.5566,0.0645,0.7822,0.1934,0.2256,0.126,0.4028,0.3106,0.5317,0.5537m-2.377,1.837c-0.000002,0.627,0.09961,1.1,0.2988,1.419,0.1992,0.3193,0.4936,0.479,0.8833,0.479,0.3896,0,0.6855-0.1611,0.8877-0.4834,0.2051-0.3223,0.3076-0.7939,0.3076-1.415-0.000004-0.624-0.1025-1.096-0.3076-1.415-0.2022-0.3223-0.498-0.4834-0.8877-0.4834s-0.6841,0.1597-0.8833,0.479-0.2988,0.7925-0.2988,1.419"/>
			<path d="m81.83,740.5,0,0.3955-3.502,0,0,0.0264c-0.000001,0.5361,0.1392,0.9507,0.4175,1.244,0.2812,0.293,0.6768,0.4394,1.187,0.4394,0.2578,0,0.5273-0.041,0.8086-0.123,0.2812-0.082,0.5815-0.2066,0.9009-0.3735v0.8042c-0.3076,0.126-0.605,0.2197-0.8921,0.2812-0.2842,0.0644-0.5596,0.0967-0.8262,0.0967-0.7647,0-1.362-0.2285-1.793-0.6856-0.4307-0.46-0.646-1.093-0.646-1.898,0-0.7852,0.2109-1.412,0.6328-1.881,0.4219-0.4688,0.9844-0.7031,1.688-0.7031,0.6269,0.00001,1.121,0.2124,1.481,0.6372,0.3633,0.4248,0.5449,1.005,0.5449,1.74m-0.8086-0.2373c-0.01172-0.4746-0.1245-0.835-0.3384-1.081-0.2109-0.249-0.5156-0.3735-0.9141-0.3735-0.3897,0-0.7105,0.1289-0.9624,0.3867-0.252,0.2578-0.4014,0.6152-0.4482,1.072l2.663-0.004"/>
			<path d="m83.35,738.2,3.573,0,0,0.7383-2.826,3.533,2.826,0,0,0.6592-3.678,0,0-0.7471,2.826-3.538-2.72,0,0-0.646"/>
			<path d="m92.33,740.7c-0.000004-0.3779-0.09375-0.6797-0.2812-0.9053-0.1875-0.2285-0.438-0.3428-0.7515-0.3428-0.3135,0.00001-0.5654,0.1143-0.7559,0.3428-0.1875,0.2256-0.2813,0.5273-0.2812,0.9053-0.000002,0.3809,0.09375,0.6856,0.2812,0.9141,0.1904,0.2256,0.4424,0.3384,0.7559,0.3384s0.564-0.1128,0.7515-0.3384c0.1875-0.2285,0.2812-0.5332,0.2812-0.9141m0.6152,1.802-0.6328,0,0-0.4878c-0.1084,0.1846-0.2593,0.3267-0.4526,0.4263-0.1904,0.0996-0.4058,0.1494-0.646,0.1494-0.4717,0-0.8628-0.1772-1.173-0.5317-0.3076-0.3545-0.4614-0.8071-0.4614-1.358-0.000002-0.5508,0.1538-1.003,0.4614-1.358,0.3105-0.3545,0.7017-0.5317,1.173-0.5317,0.2344,0.00001,0.4497,0.0513,0.646,0.1538s0.3472,0.2432,0.4526,0.4219v-0.2768c-0.000004-0.457-0.1289-0.8247-0.3867-1.103s-0.5991-0.4175-1.024-0.4175c-0.7207,0.00001-1.295,0.2813-1.723,0.8438-0.4248,0.5596-0.6372,1.318-0.6372,2.276,0,0.9639,0.2417,1.731,0.7251,2.303,0.4834,0.5713,1.126,0.8569,1.929,0.8569,0.1582,0,0.3164-0.0146,0.4746-0.0439s0.3208-0.0747,0.4878-0.1362l0.2109,0.5933c-0.1846,0.0732-0.3677,0.1274-0.5493,0.1626-0.1787,0.0352-0.353,0.0527-0.5229,0.0527-1.046,0-1.876-0.3413-2.492-1.024-0.6123-0.6826-0.9185-1.604-0.9185-2.764,0-1.143,0.2754-2.052,0.8262-2.729,0.5508-0.6768,1.289-1.015,2.215-1.015,0.6123,0,1.102,0.1948,1.468,0.5845,0.3662,0.3896,0.5493,0.9126,0.5493,1.569v3.384"/>
			<path d="m97.85,742.9c-0.2168,0.126-0.4409,0.2197-0.6724,0.2812-0.2285,0.0644-0.4629,0.0967-0.7031,0.0967-0.7617,0-1.358-0.2285-1.789-0.6856-0.4277-0.457-0.6416-1.09-0.6416-1.898-0.000001-0.8086,0.2139-1.441,0.6416-1.898,0.4307-0.457,1.027-0.6855,1.789-0.6856,0.2373,0.00001,0.4687,0.0308,0.6943,0.0923s0.4526,0.1567,0.6812,0.2856v0.8482c-0.2139-0.1904-0.4292-0.3281-0.646-0.4131-0.2139-0.085-0.457-0.1274-0.7295-0.1274-0.5068,0-0.8965,0.1641-1.169,0.4922s-0.4087,0.7969-0.4087,1.406c-0.000002,0.6064,0.1362,1.075,0.4087,1.406,0.2754,0.3281,0.665,0.4922,1.169,0.4922,0.2812,0,0.5332-0.0425,0.7559-0.1274,0.2227-0.0879,0.4292-0.2226,0.6196-0.4043v0.8394"/>
			<path d="m99.72,738.2,2.07,0,0,4.293,1.604,0,0,0.6284-4.017,0,0-0.6284,1.604,0,0-3.665-1.261,0,0-0.6284m1.261-1.916,0.8086,0,0,1.024-0.8086,0,0-1.024"/>
			<path d="m108.9,740.5,0,0.3955-3.502,0,0,0.0264c0,0.5361,0.1392,0.9507,0.4175,1.244,0.2812,0.293,0.6768,0.4394,1.187,0.4394,0.2578,0,0.5273-0.041,0.8086-0.123,0.2812-0.082,0.5815-0.2066,0.9009-0.3735v0.8042c-0.3076,0.126-0.605,0.2197-0.8921,0.2812-0.2842,0.0644-0.5596,0.0967-0.8262,0.0967-0.7646,0-1.362-0.2285-1.793-0.6856-0.4307-0.46-0.646-1.093-0.646-1.898,0-0.7852,0.2109-1.412,0.6328-1.881,0.4219-0.4688,0.9844-0.7031,1.688-0.7031,0.627,0.00001,1.121,0.2124,1.481,0.6372,0.3633,0.4248,0.5449,1.005,0.5449,1.74m-0.8086-0.2373c-0.0117-0.4746-0.1245-0.835-0.3384-1.081-0.2109-0.249-0.5156-0.3735-0.9141-0.3735-0.3896,0-0.7104,0.1289-0.9624,0.3867s-0.4014,0.6152-0.4482,1.072l2.663-0.004"/>
			<path d="m114,740.1,0,3.05-0.813,0,0-3.05c0-0.4424-0.0776-0.7676-0.2329-0.9756s-0.3984-0.312-0.7295-0.312c-0.3779,0-0.6694,0.1348-0.8745,0.4043-0.2022,0.2666-0.3032,0.6504-0.3032,1.151v2.782h-0.8086v-4.922h0.8086v0.7383c0.1436-0.2812,0.3384-0.4936,0.5845-0.6372,0.2461-0.1465,0.5376-0.2197,0.8745-0.2197,0.501,0.00001,0.8745,0.1655,1.121,0.4966,0.249,0.3281,0.3735,0.8262,0.3735,1.494"/>
			<path d="m119.5,742.9c-0.2168,0.126-0.4409,0.2197-0.6724,0.2812-0.2285,0.0644-0.4629,0.0967-0.7031,0.0967-0.7617,0-1.358-0.2285-1.789-0.6856-0.4277-0.457-0.6416-1.09-0.6416-1.898-0.00001-0.8086,0.2139-1.441,0.6416-1.898,0.4307-0.457,1.027-0.6855,1.789-0.6856,0.2373,0.00001,0.4688,0.0308,0.6943,0.0923,0.2256,0.0615,0.4526,0.1567,0.6812,0.2856v0.8482c-0.2139-0.1904-0.4292-0.3281-0.646-0.4131-0.2139-0.085-0.457-0.1274-0.7295-0.1274-0.5068,0-0.8965,0.1641-1.169,0.4922s-0.4087,0.7969-0.4087,1.406c0,0.6064,0.1362,1.075,0.4087,1.406,0.2754,0.3281,0.665,0.4922,1.169,0.4922,0.2812,0,0.5332-0.0425,0.7559-0.1274,0.2226-0.0879,0.4292-0.2226,0.6196-0.4043v0.8394"/>
			<path d="m121.4,738.2,2.07,0,0,4.293,1.604,0,0,0.6284-4.017,0,0-0.6284,1.604,0,0-3.665-1.261,0,0-0.6284m1.261-1.916,0.8086,0,0,1.024-0.8086,0,0-1.024"/>
			<path d="m128.8,740.6-0.2681,0c-0.4717,0-0.8276,0.0835-1.068,0.2505-0.2373,0.1641-0.356,0.4102-0.356,0.7383,0,0.2959,0.0894,0.5259,0.2681,0.6899,0.1787,0.1641,0.4263,0.2461,0.7427,0.2461,0.4453,0,0.7954-0.1538,1.05-0.4614,0.2549-0.3106,0.3838-0.7383,0.3867-1.283v-0.1802h-0.7559m1.569-0.334,0,2.808-0.813,0,0-0.7295c-0.1729,0.293-0.3911,0.5098-0.6548,0.6504-0.2607,0.1377-0.5786,0.2065-0.9536,0.2065-0.501,0-0.9009-0.1406-1.2-0.4219-0.2988-0.2842-0.4482-0.6636-0.4482-1.138,0-0.5478,0.1831-0.9639,0.5493-1.248,0.3691-0.2842,0.9097-0.4263,1.622-0.4263h1.085v-0.1274c-0.003-0.3926-0.1026-0.6768-0.2988-0.8525-0.1963-0.1787-0.5098-0.2681-0.9404-0.2681-0.2754,0-0.5537,0.0396-0.835,0.1186-0.2812,0.0791-0.5552,0.1948-0.8218,0.3472v-0.8086c0.2988-0.1142,0.5845-0.1992,0.8569-0.2549,0.2754-0.0586,0.542-0.0879,0.7998-0.0879,0.4072,0.00001,0.7544,0.0601,1.042,0.1802,0.29,0.1201,0.5244,0.3003,0.7031,0.5405,0.1113,0.1465,0.1904,0.3281,0.2373,0.5449,0.0469,0.2139,0.0703,0.5361,0.0703,0.9668"/>
			<path d="m135.4,738.4,0,0.791c-0.2314-0.1348-0.4644-0.2358-0.6987-0.3032-0.2344-0.0674-0.4732-0.1011-0.7163-0.1011-0.3662,0-0.6401,0.0601-0.8218,0.1802-0.1787,0.1172-0.2681,0.2974-0.2681,0.5405-0.00001,0.2197,0.0674,0.3838,0.2021,0.4922,0.1348,0.1084,0.4702,0.2139,1.006,0.3164l0.3252,0.0615c0.4014,0.0762,0.7046,0.2285,0.9097,0.457,0.208,0.2285,0.312,0.5259,0.312,0.8921-0.00001,0.4863-0.1729,0.8672-0.5186,1.143-0.3457,0.2725-0.8262,0.4087-1.441,0.4087-0.2432,0-0.498-0.0264-0.7646-0.0791-0.2666-0.0498-0.5552-0.126-0.8657-0.2285v-0.835c0.3018,0.1553,0.5903,0.2725,0.8657,0.3516,0.2754,0.0762,0.5361,0.1143,0.7822,0.1143,0.3574,0,0.6343-0.0718,0.8306-0.2153,0.1963-0.1465,0.2944-0.3501,0.2944-0.6108,0-0.375-0.3589-0.6343-1.077-0.7778l-0.0352-0.009-0.3032-0.0615c-0.4658-0.0908-0.8057-0.2432-1.02-0.457-0.2139-0.2168-0.3208-0.5112-0.3208-0.8833,0-0.4717,0.1597-0.835,0.479-1.09,0.3193-0.2578,0.7749-0.3867,1.367-0.3867,0.2637,0.00001,0.5171,0.0249,0.7602,0.0747,0.2432,0.0469,0.4819,0.1187,0.7163,0.2153"/>
			<path d="m138.6,741.8,1.107,0,0,1.34-1.107,0,0-1.34"/>
			<path d="m142.8,741.3,0-3.05,0.8086,0,0,3.05c0,0.4424,0.0776,0.7676,0.2329,0.9756,0.1582,0.208,0.4014,0.312,0.7295,0.312,0.3809,0,0.6724-0.1333,0.8745-0.3999,0.2021-0.2695,0.3032-0.6548,0.3032-1.156v-2.782h0.813v4.913h-0.813v-0.7383c-0.1436,0.2842-0.3398,0.4995-0.5889,0.646-0.2461,0.1465-0.5347,0.2197-0.8657,0.2197-0.5039,0-0.8789-0.1641-1.125-0.4922-0.2461-0.331-0.3691-0.8306-0.3691-1.499"/>
			<path d="m151.9,740.1,0,3.05-0.813,0,0-3.05c0-0.4424-0.0776-0.7676-0.2329-0.9756s-0.3984-0.312-0.7295-0.312c-0.3779,0-0.6694,0.1348-0.8745,0.4043-0.2022,0.2666-0.3032,0.6504-0.3032,1.151v2.782h-0.8086v-4.922h0.8086v0.7383c0.1436-0.2812,0.3384-0.4936,0.5845-0.6372,0.2461-0.1465,0.5376-0.2197,0.8745-0.2197,0.501,0.00001,0.8745,0.1655,1.121,0.4966,0.249,0.3281,0.3735,0.8262,0.3735,1.494"/>
			<path d="m155.8,740.6-0.2681,0c-0.4717,0-0.8276,0.0835-1.068,0.2505-0.2373,0.1641-0.356,0.4102-0.356,0.7383-0.00001,0.2959,0.0893,0.5259,0.2681,0.6899,0.1787,0.1641,0.4263,0.2461,0.7427,0.2461,0.4453,0,0.7954-0.1538,1.05-0.4614,0.2549-0.3106,0.3838-0.7383,0.3867-1.283v-0.1802h-0.7559m1.569-0.334,0,2.808-0.813,0,0-0.7295c-0.1729,0.293-0.3911,0.5098-0.6548,0.6504-0.2607,0.1377-0.5786,0.2065-0.9536,0.2065-0.501,0-0.9009-0.1406-1.2-0.4219-0.2988-0.2842-0.4482-0.6636-0.4482-1.138,0-0.5478,0.1831-0.9639,0.5493-1.248,0.3691-0.2842,0.9097-0.4263,1.622-0.4263h1.085v-0.1274c-0.003-0.3926-0.1025-0.6768-0.2988-0.8525-0.1963-0.1787-0.5098-0.2681-0.9404-0.2681-0.2754,0-0.5537,0.0396-0.835,0.1186-0.2812,0.0791-0.5552,0.1948-0.8218,0.3472v-0.8086c0.2988-0.1142,0.5845-0.1992,0.8569-0.2549,0.2754-0.0586,0.542-0.0879,0.7998-0.0879,0.4072,0.00001,0.7544,0.0601,1.042,0.1802,0.29,0.1201,0.5244,0.3003,0.7031,0.5405,0.1113,0.1465,0.1904,0.3281,0.2373,0.5449,0.0469,0.2139,0.0703,0.5361,0.0703,0.9668"/>
			<path d="m161.1,738.7c0.0996-0.2109,0.2256-0.3662,0.3779-0.4658,0.1553-0.1025,0.3413-0.1538,0.5581-0.1538,0.3955,0.00001,0.6738,0.1538,0.835,0.4614,0.1641,0.3047,0.2461,0.8804,0.2461,1.727v2.852h-0.7383v-2.817c0-0.6943-0.0395-1.125-0.1186-1.292-0.0762-0.1699-0.2168-0.2549-0.4219-0.2549-0.2344,0-0.3955,0.0908-0.4834,0.2725-0.085,0.1787-0.1274,0.6035-0.1274,1.274v2.817h-0.7383v-2.817c0-0.7031-0.0425-1.137-0.1274-1.301-0.082-0.1641-0.2314-0.2461-0.4482-0.2461-0.2139,0-0.3633,0.0908-0.4482,0.2725-0.082,0.1787-0.123,0.6035-0.123,1.274v2.817h-0.7339v-4.922h0.7339v0.4219c0.0967-0.1758,0.2168-0.3091,0.3604-0.3999,0.1465-0.0937,0.312-0.1406,0.4966-0.1406,0.2226,0.00001,0.4072,0.0513,0.5537,0.1538,0.1494,0.1025,0.2651,0.2578,0.3472,0.4658"/>
			<path d="m165.7,741.8,1.107,0,0,1.34-1.107,0,0-1.34"/>
			<path d="m172,738.7c0.0996-0.2109,0.2256-0.3662,0.3779-0.4658,0.1553-0.1025,0.3413-0.1538,0.5581-0.1538,0.3955,0.00001,0.6738,0.1538,0.835,0.4614,0.164,0.3047,0.2461,0.8804,0.2461,1.727v2.852h-0.7383v-2.817c-0.00001-0.6943-0.0396-1.125-0.1186-1.292-0.0762-0.1699-0.2168-0.2549-0.4219-0.2549-0.2344,0-0.3955,0.0908-0.4834,0.2725-0.085,0.1787-0.1274,0.6035-0.1274,1.274v2.817h-0.7383v-2.817c0-0.7031-0.0425-1.137-0.1274-1.301-0.082-0.1641-0.2314-0.2461-0.4482-0.2461-0.2139,0-0.3633,0.0908-0.4482,0.2725-0.082,0.1787-0.123,0.6035-0.123,1.274v2.817h-0.7339v-4.922h0.7339v0.4219c0.0967-0.1758,0.2168-0.3091,0.3604-0.3999,0.1465-0.0937,0.312-0.1406,0.4966-0.1406,0.2226,0.00001,0.4072,0.0513,0.5537,0.1538,0.1494,0.1025,0.2651,0.2578,0.3472,0.4658"/>
			<path d="m179.3,738.2-1.762,2.355,1.934,2.566-0.936,0-1.441-1.973-1.437,1.973-0.936,0,1.934-2.566-1.762-2.355,0.8965,0,1.305,1.78,1.296-1.78,0.9097,0"/>
		</g>
	</g>
</svg>
